PathFileType	4	(X/Y/Z)	s04c0303.trc
DataRate	CameraRate	NumFrames	NumMarkers	Units	OrigDataRate	OrigDataStartFrame	OrigNumFrames
200	200	6	50	mm	200	1500	2000
Frame#	Time	racr			lacr			c7			jug			rlel			rdr			llel			ldr			s2			lic			ric			lasi			rasi			rpsi			lpsi			rgt			lgt			rth1			rth2			rth3			rth4			rlfc			rmfc			rsh1			rsh2			rsh3			rsh4			rlmal			rmmal			rcal			rtoe			rmt5			lth1			lth2			lth4			lth3			llfc			lmfc			lsh1			lsh2			lsh3			lsh4			llmal			lmmal			lcal			ltoe			lmt5			SBIKE			LBIKE			RBIKE			
		X1	Y1	Z1	X2	Y2	Z2	X3	Y3	Z3	X4	Y4	Z4	X5	Y5	Z5	X6	Y6	Z6	X7	Y7	Z7	X8	Y8	Z8	X9	Y9	Z9	X10	Y10	Z10	X11	Y11	Z11	X12	Y12	Z12	X13	Y13	Z13	X14	Y14	Z14	X15	Y15	Z15	X16	Y16	Z16	X17	Y17	Z17	X18	Y18	Z18	X19	Y19	Z19	X20	Y20	Z20	X21	Y21	Z21	X22	Y22	Z22	X23	Y23	Z23	X24	Y24	Z24	X25	Y25	Z25	X26	Y26	Z26	X27	Y27	Z27	X28	Y28	Z28	X29	Y29	Z29	X30	Y30	Z30	X31	Y31	Z31	X32	Y32	Z32	X33	Y33	Z33	X34	Y34	Z34	X35	Y35	Z35	X36	Y36	Z36	X37	Y37	Z37	X38	Y38	Z38	X39	Y39	Z39	X40	Y40	Z40	X41	Y41	Z41	X42	Y42	Z42	X43	Y43	Z43	X44	Y44	Z44	X45	Y45	Z45	X46	Y46	Z46	X47	Y47	Z47	X48	Y48	Z48	X49	Y49	Z49	X50	Y50	Z50	
1500	7.5000	726.990048	1391.470629	-103.839047	711.020009	1365.620925	-424.068737	717.934660	1452.714480	-261.658291	700.409934	1302.599713	-260.739850	592.735117	1132.753575	46.534645	698.944972	908.403468	-95.511136	565.464444	1142.732891	-571.699416	692.017916	908.632597	-478.054441	153.655015	1218.457564	-229.545409	302.720071	1207.882685	-398.486143	317.928902	1217.495785	-81.911689	336.309419	1152.814407	-355.294297	353.368339	1167.546789	-130.104998	189.993944	1259.206669	-190.556708	186.507945	1261.389893	-269.225893	277.541825	1167.551083	-52.724263	228.655713	1111.375039	-416.558124	394.712148	1069.831042	-66.493377	475.800809	1036.370150	-80.740961	529.661046	970.720258	-87.847665	491.723503	1063.091065	-102.516701	620.112076	864.376895	-129.746667	588.975555	859.575100	-241.849478	527.244595	791.293832	-103.584894	466.230842	725.508558	-117.055337	381.091211	704.160894	-116.456119	480.800181	706.304203	-147.632465	260.836221	613.082958	-122.859609	271.701610	616.525074	-210.455057	176.581594	625.135758	-154.319612	428.624972	460.925905	-176.770401	365.997128	473.361136	-113.661130	240.922090	1019.329430	-443.207624	278.514567	941.673504	-453.632931	313.900379	948.619814	-449.310992	272.689106	852.887318	-456.735064	287.745470	686.787175	-450.330013	322.024145	651.541383	-344.286904	240.696224	567.620233	-471.432136	224.665762	483.582698	-453.496535	167.533599	415.673914	-449.701623	253.389219	473.214977	-428.026325	101.476438	284.619912	-443.549270	104.773822	293.158536	-356.605649	25.517946	297.455921	-400.301776	286.654232	142.775659	-415.898533	204.548809	145.726253	-474.113115	-184.255034	929.175786	-286.439433	-17.432230	79.267413	-485.317704	-17.453673	79.349649	-84.620060	
1501	7.5050	724.331641	1392.943631	-103.741364	708.895472	1366.542913	-424.024300	715.157308	1453.805034	-261.578745	697.974636	1303.716464	-259.942254	592.115199	1132.892530	45.996374	698.952962	908.432677	-95.698030	564.367461	1142.625012	-571.417515	691.913665	908.688595	-477.989227	151.526578	1218.056915	-229.889232	300.592336	1208.397600	-398.565625	315.636275	1217.607574	-82.003920	334.484426	1153.223899	-355.586893	351.237199	1167.890485	-130.334463	187.642659	1258.961537	-190.629971	184.310894	1261.262779	-269.273792	275.105322	1167.040361	-52.903229	226.698654	1111.518362	-416.800698	392.801292	1069.788648	-66.712507	474.218570	1036.816791	-80.904421	528.494355	971.553800	-88.096826	490.088848	1063.962634	-102.544697	619.423068	865.703093	-129.961186	588.402186	860.829314	-242.056734	527.177756	791.735440	-103.763938	466.811692	725.272922	-117.365009	381.874298	703.279424	-116.789829	481.565755	706.414786	-147.976100	262.576419	611.264422	-123.283036	273.269216	614.684958	-210.835927	178.306285	622.471559	-154.803206	431.695852	460.467837	-176.641817	368.884492	472.488934	-113.756545	238.732817	1019.301642	-443.303612	276.488606	941.667740	-453.395888	311.840127	949.020025	-450.911667	270.995639	852.977019	-457.065825	287.052718	687.332843	-451.411311	322.235759	651.979336	-345.615395	239.921286	568.409303	-472.301969	223.363598	484.551112	-454.157291	165.788123	417.016322	-450.159362	252.029877	474.103154	-428.680753	99.013515	286.350798	-443.507157	102.482911	294.978688	-356.642313	23.306813	299.467994	-399.919349	283.523016	143.680601	-416.079678	201.376765	147.031345	-474.203831	-184.279703	929.168231	-286.451954	-17.414378	79.292045	-485.317398	-17.467800	79.352586	-84.604879	
1502	7.5100	721.613866	1394.379012	-103.915953	706.714138	1367.463110	-423.850613	711.756585	1454.582194	-263.026405	695.636593	1304.916653	-259.717265	591.431511	1133.111209	45.477022	698.651287	908.131555	-95.578861	563.508549	1142.611408	-571.006622	691.833141	908.732474	-477.930953	149.277827	1217.826456	-230.123010	298.530359	1208.791295	-398.618364	313.379830	1217.719380	-82.094890	332.677010	1153.607843	-355.873121	349.111629	1168.171422	-130.574080	185.310501	1258.784150	-190.856797	182.090049	1261.202700	-269.392588	272.688329	1166.730675	-53.092132	224.884427	1111.754149	-417.138370	391.023544	1069.887202	-66.943783	472.568442	1037.483340	-81.135599	527.049642	972.697947	-87.953867	488.345648	1064.685920	-102.570311	618.613715	866.916490	-130.234992	587.654278	861.947485	-242.205011	526.881437	792.174151	-103.990144	467.126323	725.256522	-117.679282	382.443790	702.368394	-117.197138	482.085180	706.502029	-148.321662	263.935981	609.475103	-123.802554	274.496879	613.018973	-211.239565	180.040272	619.568391	-156.104284	434.426045	460.109602	-176.438092	371.393645	471.663431	-113.781486	236.360027	1019.130885	-442.688880	274.524956	942.081154	-454.314179	309.900355	949.488492	-452.402771	269.397018	853.215835	-457.418625	286.402199	687.957070	-452.492217	322.697909	652.427120	-347.024734	239.132685	569.337084	-473.250073	222.217541	485.531199	-454.913812	164.264890	418.351600	-450.634239	250.850919	474.960114	-429.465699	96.881926	288.042165	-443.523584	100.544982	296.856461	-356.766669	21.439234	301.702687	-399.796614	280.701512	144.577266	-416.246790	198.509252	148.256072	-474.266198	-184.311874	929.182791	-286.476585	-17.436324	79.276788	-485.326291	-17.473349	79.350653	-84.626499	
1503	7.5150	718.991156	1395.791395	-103.922802	704.626167	1368.443356	-423.731821	708.945471	1455.721506	-262.771699	693.284561	1306.172294	-259.507900	590.751851	1133.306335	44.867942	698.640623	908.216257	-95.570922	562.644308	1142.617111	-570.684443	691.771156	908.765784	-477.841903	147.167667	1217.469673	-230.607940	296.548234	1209.420252	-398.966441	311.116552	1217.886409	-82.209430	330.835465	1154.098731	-356.203648	347.012145	1168.442465	-130.814104	183.046751	1258.419096	-190.753303	179.851856	1261.136098	-269.623534	270.264063	1166.532479	-53.386351	223.067518	1112.090527	-417.448501	389.259229	1070.138793	-67.150958	470.753039	1038.007729	-81.272699	525.704828	973.433391	-88.240144	486.485212	1065.460145	-102.512148	617.586605	868.319064	-130.240477	586.732925	862.855418	-242.333241	526.413435	792.588297	-104.182380	467.131113	725.121096	-118.057317	382.730776	701.638600	-117.602807	482.382744	706.592892	-148.665704	265.028950	607.773542	-124.354476	275.558228	611.316775	-211.676148	181.206153	617.162921	-156.912538	436.848061	459.735630	-176.197526	373.563405	470.802913	-113.796060	234.259124	1019.417192	-442.928549	272.642482	942.507719	-455.144669	307.994659	950.043220	-453.793354	267.887350	853.594059	-458.019290	285.832413	688.474572	-453.120157	323.196898	653.112008	-348.336102	238.279646	570.305027	-474.071928	221.239596	486.689645	-455.806841	162.987912	419.760607	-451.163378	249.925097	476.031246	-430.507796	95.144752	289.822473	-443.617978	99.141701	298.617797	-356.833271	19.919134	303.844151	-399.707521	278.204304	145.239686	-416.379406	195.967649	149.270869	-474.256338	-184.336911	929.187770	-286.469448	-17.433154	79.302575	-485.315008	-17.491476	79.369230	-84.624802	
1504	7.5200	716.334035	1397.169133	-103.991099	702.461958	1369.474273	-423.566972	706.171407	1456.984402	-262.738779	690.949658	1307.487053	-259.386062	590.304036	1133.621887	44.444009	698.616517	908.310253	-95.701559	561.811173	1142.664361	-570.368131	691.783970	908.894229	-477.866916	145.059099	1217.204855	-231.035355	294.500827	1209.801045	-398.989386	308.844853	1218.074757	-82.327204	328.978429	1154.578310	-356.521935	344.946445	1168.837626	-130.938973	180.692259	1258.251408	-191.093345	177.676014	1261.055740	-269.824573	267.934892	1166.510293	-53.654713	221.319530	1112.382987	-417.765729	387.484095	1070.493827	-67.300299	469.083523	1038.691800	-81.381785	524.321016	974.203363	-88.595428	484.772617	1066.097075	-102.740022	616.552602	869.337271	-130.491640	585.668678	863.718971	-242.516072	525.768755	793.027103	-104.401532	467.016198	725.032240	-118.403763	382.836501	700.909401	-117.973484	482.489691	706.648638	-148.952839	265.885030	606.208474	-124.859875	276.536525	609.733424	-212.138982	182.064366	614.843519	-157.661574	438.926502	459.510681	-175.882079	375.391438	470.129634	-113.699075	232.271103	1019.683575	-443.260371	270.805946	942.980432	-455.889159	306.135889	950.695619	-455.083579	266.420100	854.058256	-458.838258	285.640133	689.308309	-454.238863	323.889222	653.779489	-349.833360	237.746203	571.399958	-475.148151	220.464801	487.799419	-456.728926	162.020152	421.052878	-451.735839	249.229550	476.930038	-431.406164	93.849569	291.534183	-443.761596	98.055860	300.390887	-357.201686	18.762099	305.768401	-399.804890	276.153349	145.778368	-416.441360	193.867449	150.119376	-474.337750	-184.373775	929.182895	-286.455330	-17.448771	79.282500	-485.309578	-17.476933	79.360135	-84.608539	
1505	7.5250	713.736245	1398.527617	-104.065905	700.337383	1370.292272	-422.141446	703.454815	1458.168889	-262.555533	688.666542	1308.811950	-259.236759	589.591784	1133.815292	43.852094	698.565779	908.342201	-95.645527	560.970673	1142.702346	-570.168117	691.799769	908.972133	-477.851729	142.923556	1216.980316	-231.490144	292.555754	1210.439733	-399.384995	306.581821	1218.293709	-82.492624	327.114357	1155.167652	-357.280573	342.857673	1169.065087	-131.052982	178.433287	1258.166110	-191.406864	175.330749	1261.029196	-270.108216	265.719337	1166.594539	-53.905937	219.600321	1112.818551	-418.143259	385.707301	1071.166829	-67.054695	467.454073	1039.433241	-81.463975	522.772254	975.006486	-88.954539	482.962098	1066.843315	-102.891634	615.413356	870.479294	-130.618351	584.509603	864.367310	-242.658643	524.911886	793.493339	-104.600885	466.650148	725.074874	-118.699050	382.755010	700.189873	-118.396259	482.439620	706.725604	-149.173771	266.291059	604.814446	-125.711142	277.317869	608.194694	-212.696149	182.968469	612.742845	-158.195711	440.634185	459.231547	-175.597228	376.880667	469.609526	-113.592915	230.289818	1020.090887	-443.578756	269.027524	943.497881	-456.660804	304.331646	951.411127	-456.179950	264.970904	854.623871	-459.852769	285.659278	690.238038	-455.381223	324.687467	654.645745	-351.313776	237.379017	572.462064	-476.169425	219.941060	489.241449	-457.726866	161.456042	422.347705	-452.448632	248.884994	478.009196	-432.615134	92.959854	292.964012	-444.019429	97.207346	301.890159	-357.690723	17.971900	307.508174	-400.147898	274.481629	146.113176	-416.397369	192.264987	150.859888	-474.376995	-184.388075	929.173569	-286.413810	-17.439275	79.337418	-485.311698	-17.470239	79.352474	-84.593417	
